<svg width="46" height="43" viewBox="0 0 46 43" fill="none" xmlns="http://www.w3.org/2000/svg">
<path d="M34.2927 30.8962C33.4053 32.9402 32.0774 34.7753 30.3988 36.2773C28.7201 37.7793 26.7298 38.9133 24.5621 39.6028C22.3945 40.2923 20.1 40.5212 17.8337 40.2741C15.5673 40.0269 13.3819 39.3095 11.4249 38.1702L2.55957 40.4552L5.06456 31.2389C3.5454 28.004 3.21808 24.3586 4.13771 20.9164C5.05734 17.4742 7.16776 14.4454 10.1137 12.3398" stroke="#8C8C8C" stroke-width="4" stroke-linecap="round" stroke-linejoin="round"/>
<path d="M43.0986 33.1803L40.5937 23.964C42.1698 20.579 42.4478 16.7565 41.3771 13.1893C40.3064 9.62203 37.9579 6.54594 34.7572 4.51828C31.5564 2.49062 27.715 1.64549 23.9291 2.13612C20.1431 2.62675 16.663 4.42063 14.1193 7.19273C11.5755 9.96483 10.1363 13.5318 10.0626 17.2474C9.98877 20.9629 11.2852 24.5813 13.717 27.447C16.1488 30.3126 19.5551 32.236 23.3188 32.8685C27.0824 33.5011 30.9544 32.8011 34.2333 30.8953L43.0986 33.1803Z" stroke="#8C8C8C" stroke-width="4" stroke-linecap="round" stroke-linejoin="round"/>
<path d="M21.3863 12.6449C21.663 12.0651 22.0874 11.5636 22.6193 11.1882C23.1744 10.7934 23.8022 10.5058 24.4686 10.3409C25.1823 10.1482 25.9199 10.052 26.6605 10.0552C27.6156 10.0445 28.5644 10.2059 29.459 10.5312C30.2336 10.8284 30.9102 11.3255 31.4161 11.9689C31.9364 12.6603 32.2018 13.5023 32.1695 14.3587C32.1906 14.9304 32.0698 15.4986 31.8173 16.0153C31.6076 16.432 31.311 16.8017 30.9464 17.1007C30.597 17.3786 30.2311 17.6361 29.8504 17.8719C29.4003 18.1385 29.0383 18.367 28.7643 18.5669C28.5084 18.7355 28.2971 18.9606 28.1478 19.2239L28.0206 19.4619C28.0206 19.8427 27.9619 20.2521 27.9619 20.414C27.9619 20.5758 27.1204 20.652 26.093 20.652C25.4586 20.7002 24.8204 20.6455 24.2044 20.4902C24.2044 20.414 24.2044 19.8427 24.1261 19.2239L24.2338 18.7573C24.3387 18.3002 24.5458 17.8711 24.8405 17.5006C25.1695 17.1093 25.5753 16.7856 26.0343 16.5485C26.488 16.3059 26.9172 16.0223 27.3161 15.7012C27.5642 15.4737 27.7269 15.172 27.7783 14.8442C27.8297 14.5164 27.7669 14.1812 27.5999 13.8922C27.464 13.702 27.2781 13.5507 27.0617 13.4542C26.8364 13.3586 26.5931 13.31 26.3474 13.3114C26.1423 13.3079 25.9389 13.3469 25.7505 13.4256C25.5759 13.5025 25.4191 13.613 25.2896 13.7505C25.1601 13.8879 25.0606 14.0495 24.997 14.2254L24.9383 14.4063C24.9383 14.6348 24.0185 14.8252 22.9813 14.8252C22.7545 14.8488 22.5251 14.8278 22.3068 14.7634C22.0885 14.6991 21.8856 14.5927 21.7104 14.4506C21.5352 14.3085 21.3911 14.1336 21.2866 13.9363C21.1822 13.7389 21.1196 13.5232 21.1025 13.3019L21.3863 12.6449ZM24.3904 22.1659C24.9218 21.7875 25.5727 21.6023 26.23 21.6422C26.89 21.604 27.5434 21.789 28.0793 22.1659C28.2953 22.3363 28.4678 22.553 28.5832 22.7992C28.6986 23.0453 28.7539 23.3141 28.7447 23.5845C28.7539 23.8535 28.6986 24.1209 28.5831 24.3655C28.4676 24.6101 28.2951 24.8251 28.0793 24.9936C27.5307 25.3418 26.8899 25.5272 26.2349 25.5272C25.5798 25.5272 24.939 25.3418 24.3904 24.9936C24.1728 24.8266 23.9991 24.6119 23.8834 24.3669C23.7677 24.122 23.7134 23.8538 23.725 23.5845C23.7196 23.3201 23.7768 23.0581 23.8922 22.8187C24.0076 22.5793 24.178 22.3689 24.3904 22.2039V22.1659Z" fill="#8C8C8C"/>
</svg>
