<svg width="47" height="47" viewBox="0 0 47 47" fill="none" xmlns="http://www.w3.org/2000/svg">
<path d="M40.3909 44.725H6.03688C5.5097 44.728 5.00001 44.5446 4.60621 44.2102C4.2124 43.8758 3.96239 43.4141 3.90441 42.9141L2.21977 18.7934C2.21089 18.5239 2.25996 18.2556 2.36398 18.0049C2.46801 17.7542 2.62476 17.5265 2.82457 17.3358C3.02439 17.1452 3.26305 16.9956 3.52578 16.8964C3.78852 16.7971 4.0698 16.7503 4.35224 16.7588H42.4275C42.993 16.7588 43.5354 16.9731 43.9353 17.3547C44.3352 17.7363 44.5599 18.2538 44.5599 18.7934L42.5234 42.9345C42.4606 43.4307 42.2084 43.8876 41.8151 44.2178C41.4218 44.548 40.9148 44.7286 40.3909 44.725V44.725Z" stroke="#8C8C8C" stroke-width="4" stroke-linecap="round" stroke-linejoin="round"/>
<path d="M12.7217 23.3638V12.1732C12.7217 9.47512 13.8451 6.88751 15.8446 4.97966C17.8442 3.07181 20.5562 2 23.384 2C26.2118 2 28.9239 3.07181 30.9234 4.97966C32.923 6.88751 34.0464 9.47512 34.0464 12.1732V23.3638" stroke="#8C8C8C" stroke-width="4" stroke-linecap="round" stroke-linejoin="round"/>
</svg>
